<svg width="255" height="51" viewBox="0 0 255 51" fill="none" xmlns="http://www.w3.org/2000/svg">
<g clip-path="url(#clip0_88_32)">
<path d="M22.9803 9.41566C22.4091 9.91173 21.3591 10.823 20.6464 11.4485C19.9337 12.0686 19.0523 12.8397 18.6933 13.1524C18.3287 13.4706 17.5943 14.1122 17.0557 14.5813C16.0329 15.4764 13.9492 17.2882 12.6762 18.4044C12.2681 18.7603 11.3759 19.5367 10.7013 20.1299L9.46631 21.2083V22.5456C9.46631 23.3382 9.48807 23.8774 9.51527 23.8666C9.5588 23.8559 13.2692 20.9872 15.293 19.4019C16.0438 18.8142 16.6966 18.3073 20.4233 15.4225C21.4026 14.6622 22.2404 14.0367 22.273 14.0421C22.3111 14.0475 23.0347 14.4735 23.8888 14.9911C24.7376 15.5088 25.608 16.0372 25.8148 16.1612C26.0269 16.2907 26.3914 16.5117 26.6308 16.6573C26.8702 16.8029 27.251 17.0348 27.4741 17.1696C27.9202 17.4392 28.8723 18.0161 30.2215 18.8358C30.7002 19.1269 31.4347 19.5691 31.8536 19.8279C32.2725 20.0813 32.8873 20.4534 33.2137 20.6529C33.5456 20.8524 33.9101 21.0735 34.0298 21.1436C34.2365 21.2622 35.0254 21.7421 36.6684 22.7451C37.071 22.9931 37.6585 23.349 37.9741 23.5377L38.5453 23.8828L38.5616 22.5725C38.578 21.2676 38.5725 21.2622 38.4528 21.1598C38.3821 21.1059 37.6205 20.4372 36.7554 19.6769C35.885 18.9166 34.7098 17.8867 34.144 17.3907C32.4684 15.924 32.0331 15.5411 30.6567 14.3333C29.9386 13.7024 29.0844 12.9529 28.7526 12.6617C27.3762 11.4593 26.0324 10.2784 25.1891 9.54507C24.694 9.11369 24.2316 8.70389 24.1554 8.63379L24.014 8.50977L22.9803 9.41566Z" fill="black" style="fill:black;fill-opacity:1;"/>
<path d="M20.2873 17.4176C19.7378 17.8328 18.7259 18.5931 18.035 19.1108C16.8598 19.9951 16.3539 20.3725 13.5194 22.5024C12.8938 22.9716 11.7785 23.8074 11.044 24.352C10.3096 24.902 9.65672 25.398 9.59144 25.4574C9.46631 25.5652 9.46631 25.5868 9.46631 26.9078C9.46631 27.7544 9.48807 28.2451 9.52071 28.2451C9.54791 28.2451 9.74921 28.1319 9.96683 27.9917C10.1844 27.8569 11.0277 27.3338 11.8329 26.827C12.6435 26.3255 13.3888 25.8618 13.4922 25.7917C13.5956 25.727 14.0145 25.4681 14.4171 25.2147C14.8197 24.9667 16.1145 24.1578 17.2896 23.4245L19.4277 22.0873L28.9593 25.2471C34.2039 26.9833 38.5072 28.4069 38.5344 28.4069C38.5562 28.4069 38.5725 27.7652 38.5725 26.9833V25.5652L38.1808 25.3657C37.9632 25.2632 37.479 25.0152 37.1036 24.8211C36.4834 24.4975 35.6728 24.077 34.0298 23.2304C33.7034 23.0578 32.871 22.6319 32.18 22.276C31.4945 21.9201 30.5642 21.4402 30.1127 21.2083C29.6666 20.9765 29.03 20.6475 28.6982 20.4804C28.3717 20.3078 27.4251 19.8225 26.6036 19.402C25.7821 18.9814 24.5798 18.3613 23.9378 18.027C23.2958 17.6926 22.4363 17.2505 22.0282 17.0402L21.2883 16.6627L20.2873 17.4176Z" fill="black" style="fill:black;fill-opacity:1;"/>
<path d="M17.3821 25.5167C16.245 26.1907 13.5629 27.7921 10.772 29.4637L9.49346 30.2294L9.47714 31.5828C9.4717 32.4564 9.48258 32.9363 9.52067 32.9363C9.54787 32.9363 10.5598 32.5588 11.7621 32.0951C12.9699 31.6314 14.0797 31.2108 14.2266 31.1568C14.379 31.1029 14.7543 30.9573 15.0699 30.8333C15.3854 30.7147 15.8751 30.526 16.158 30.4181L16.6748 30.224L17.5181 30.3426C18.3124 30.4505 19.4875 30.5961 21.4352 30.8333C22.8388 31.0059 24.4655 31.2054 25.3251 31.3186C25.7766 31.3779 26.4458 31.4588 26.8212 31.5019C27.1966 31.5505 28.2847 31.6799 29.2422 31.8039C30.1997 31.9225 31.4619 32.0789 32.044 32.1544C33.1049 32.2838 34.0025 32.397 35.9339 32.6397C36.5051 32.7098 37.2994 32.8069 37.702 32.8554C38.1046 32.9039 38.4691 32.9524 38.5072 32.9632C38.5616 32.9848 38.5725 32.7044 38.5616 31.6044L38.5453 30.224L36.7771 29.7441C35.8033 29.4853 34.7043 29.1833 34.329 29.0809C33.2409 28.7843 29.4598 27.7598 28.8341 27.598C28.5186 27.5118 28.029 27.3823 27.7461 27.3015C26.5437 26.9779 25.7875 26.7676 25.3523 26.6544C25.0966 26.5843 24.558 26.4387 24.1554 26.3309C23.7528 26.223 23.2142 26.0774 22.9585 26.0073C22.7028 25.9372 22.1642 25.7917 21.7616 25.6838C21.359 25.576 20.8204 25.4304 20.5647 25.3603C19.1828 24.9936 18.6442 24.8426 18.6116 24.8265C18.5898 24.8103 18.0349 25.123 17.3821 25.5167Z" fill="black" style="fill:black;fill-opacity:1;"/>
<path d="M12.7034 33.8475L9.49351 34.8613L9.47719 36.2417L9.46631 37.6274H24.0194H38.5725L38.5616 36.2363L38.5453 34.8505L37.4572 34.7588C36.8588 34.7103 35.8306 34.6186 35.1723 34.5593C34.0135 34.4461 33.2572 34.3814 29.9767 34.0956C29.1225 34.0201 28.1922 33.9392 27.9093 33.9069C27.6264 33.8799 26.794 33.8044 26.0596 33.7451C25.3251 33.6858 24.5091 33.6103 24.237 33.5833C23.9705 33.551 23.0619 33.4701 22.2241 33.3946C18.2526 33.0495 17.4909 32.9848 16.7619 32.9093C16.3321 32.8662 15.9676 32.8284 15.9458 32.8338C15.9295 32.8392 14.4715 33.2921 12.7034 33.8475Z" fill="black" style="fill:black;fill-opacity:1;"/>
<path d="M54.129 16.286H48.351V12.722H64.146V16.286H58.368V32H54.129V16.286ZM72.354 23.522C72.174 22.55 71.85 21.812 71.382 21.308C70.932 20.804 70.239 20.552 69.303 20.552C68.691 20.552 68.178 20.66 67.764 20.876C67.368 21.074 67.044 21.326 66.792 21.632C66.558 21.938 66.387 22.262 66.279 22.604C66.189 22.946 66.135 23.252 66.117 23.522H72.354ZM66.117 25.952C66.171 27.194 66.486 28.094 67.062 28.652C67.638 29.21 68.466 29.489 69.546 29.489C70.32 29.489 70.986 29.3 71.544 28.922C72.102 28.526 72.444 28.112 72.57 27.68H75.945C75.405 29.354 74.577 30.551 73.461 31.271C72.345 31.991 70.995 32.351 69.411 32.351C68.313 32.351 67.323 32.18 66.441 31.838C65.559 31.478 64.812 30.974 64.2 30.326C63.588 29.678 63.111 28.904 62.769 28.004C62.445 27.104 62.283 26.114 62.283 25.034C62.283 23.99 62.454 23.018 62.796 22.118C63.138 21.218 63.624 20.444 64.254 19.796C64.884 19.13 65.631 18.608 66.495 18.23C67.377 17.852 68.349 17.663 69.411 17.663C70.599 17.663 71.634 17.897 72.516 18.365C73.398 18.815 74.118 19.427 74.676 20.201C75.252 20.975 75.666 21.857 75.918 22.847C76.17 23.837 76.26 24.872 76.188 25.952H66.117ZM78.5699 12.722H82.4039V32H78.5699V12.722ZM88.8248 25.034C88.8248 25.592 88.8788 26.141 88.9868 26.681C89.0948 27.203 89.2748 27.68 89.5268 28.112C89.7968 28.526 90.1478 28.859 90.5798 29.111C91.0118 29.363 91.5518 29.489 92.1998 29.489C92.8478 29.489 93.3878 29.363 93.8198 29.111C94.2698 28.859 94.6208 28.526 94.8728 28.112C95.1428 27.68 95.3318 27.203 95.4398 26.681C95.5478 26.141 95.6018 25.592 95.6018 25.034C95.6018 24.476 95.5478 23.927 95.4398 23.387C95.3318 22.847 95.1428 22.37 94.8728 21.956C94.6208 21.542 94.2698 21.209 93.8198 20.957C93.3878 20.687 92.8478 20.552 92.1998 20.552C91.5518 20.552 91.0118 20.687 90.5798 20.957C90.1478 21.209 89.7968 21.542 89.5268 21.956C89.2748 22.37 89.0948 22.847 88.9868 23.387C88.8788 23.927 88.8248 24.476 88.8248 25.034ZM84.9908 25.034C84.9908 23.918 85.1618 22.91 85.5038 22.01C85.8458 21.092 86.3318 20.318 86.9618 19.688C87.5918 19.04 88.3478 18.545 89.2298 18.203C90.1118 17.843 91.1018 17.663 92.1998 17.663C93.2978 17.663 94.2878 17.843 95.1698 18.203C96.0698 18.545 96.8348 19.04 97.4648 19.688C98.0948 20.318 98.5808 21.092 98.9228 22.01C99.2648 22.91 99.4358 23.918 99.4358 25.034C99.4358 26.15 99.2648 27.158 98.9228 28.058C98.5808 28.958 98.0948 29.732 97.4648 30.38C96.8348 31.01 96.0698 31.496 95.1698 31.838C94.2878 32.18 93.2978 32.351 92.1998 32.351C91.1018 32.351 90.1118 32.18 89.2298 31.838C88.3478 31.496 87.5918 31.01 86.9618 30.38C86.3318 29.732 85.8458 28.958 85.5038 28.058C85.1618 27.158 84.9908 26.15 84.9908 25.034ZM104.899 27.464C104.899 27.878 104.98 28.238 105.142 28.544C105.322 28.832 105.547 29.075 105.817 29.273C106.087 29.453 106.393 29.588 106.735 29.678C107.095 29.768 107.464 29.813 107.842 29.813C108.112 29.813 108.391 29.786 108.679 29.732C108.985 29.66 109.255 29.561 109.489 29.435C109.741 29.291 109.948 29.111 110.11 28.895C110.272 28.661 110.353 28.373 110.353 28.031C110.353 27.455 109.966 27.023 109.192 26.735C108.436 26.447 107.374 26.159 106.006 25.871C105.448 25.745 104.899 25.601 104.359 25.439C103.837 25.259 103.369 25.034 102.955 24.764C102.541 24.476 102.208 24.125 101.956 23.711C101.704 23.279 101.578 22.757 101.578 22.145C101.578 21.245 101.749 20.507 102.091 19.931C102.451 19.355 102.919 18.905 103.495 18.581C104.071 18.239 104.719 18.005 105.439 17.879C106.159 17.735 106.897 17.663 107.653 17.663C108.409 17.663 109.138 17.735 109.84 17.879C110.56 18.023 111.199 18.266 111.757 18.608C112.315 18.95 112.774 19.409 113.134 19.985C113.512 20.543 113.737 21.254 113.809 22.118H110.164C110.11 21.38 109.831 20.885 109.327 20.633C108.823 20.363 108.229 20.228 107.545 20.228C107.329 20.228 107.095 20.246 106.843 20.282C106.591 20.3 106.357 20.354 106.141 20.444C105.943 20.534 105.772 20.669 105.628 20.849C105.484 21.011 105.412 21.236 105.412 21.524C105.412 21.866 105.538 22.145 105.79 22.361C106.042 22.577 106.366 22.757 106.762 22.901C107.176 23.027 107.644 23.144 108.166 23.252C108.688 23.36 109.219 23.477 109.759 23.603C110.317 23.729 110.857 23.882 111.379 24.062C111.919 24.242 112.396 24.485 112.81 24.791C113.224 25.079 113.557 25.448 113.809 25.898C114.061 26.33 114.187 26.87 114.187 27.518C114.187 28.436 113.998 29.21 113.62 29.84C113.26 30.452 112.783 30.947 112.189 31.325C111.595 31.703 110.911 31.964 110.137 32.108C109.381 32.27 108.607 32.351 107.815 32.351C107.005 32.351 106.213 32.27 105.439 32.108C104.665 31.946 103.972 31.676 103.36 31.298C102.766 30.92 102.271 30.425 101.875 29.813C101.497 29.183 101.29 28.4 101.254 27.464H104.899ZM124.35 12.722H128.589V20.12H136.392V12.722H140.631V32H136.392V23.684H128.589V32H124.35V12.722ZM147.36 25.034C147.36 25.592 147.414 26.141 147.522 26.681C147.63 27.203 147.81 27.68 148.062 28.112C148.332 28.526 148.683 28.859 149.115 29.111C149.547 29.363 150.087 29.489 150.735 29.489C151.383 29.489 151.923 29.363 152.355 29.111C152.805 28.859 153.156 28.526 153.408 28.112C153.678 27.68 153.867 27.203 153.975 26.681C154.083 26.141 154.137 25.592 154.137 25.034C154.137 24.476 154.083 23.927 153.975 23.387C153.867 22.847 153.678 22.37 153.408 21.956C153.156 21.542 152.805 21.209 152.355 20.957C151.923 20.687 151.383 20.552 150.735 20.552C150.087 20.552 149.547 20.687 149.115 20.957C148.683 21.209 148.332 21.542 148.062 21.956C147.81 22.37 147.63 22.847 147.522 23.387C147.414 23.927 147.36 24.476 147.36 25.034ZM143.526 25.034C143.526 23.918 143.697 22.91 144.039 22.01C144.381 21.092 144.867 20.318 145.497 19.688C146.127 19.04 146.883 18.545 147.765 18.203C148.647 17.843 149.637 17.663 150.735 17.663C151.833 17.663 152.823 17.843 153.705 18.203C154.605 18.545 155.37 19.04 156 19.688C156.63 20.318 157.116 21.092 157.458 22.01C157.8 22.91 157.971 23.918 157.971 25.034C157.971 26.15 157.8 27.158 157.458 28.058C157.116 28.958 156.63 29.732 156 30.38C155.37 31.01 154.605 31.496 153.705 31.838C152.823 32.18 151.833 32.351 150.735 32.351C149.637 32.351 148.647 32.18 147.765 31.838C146.883 31.496 146.127 31.01 145.497 30.38C144.867 29.732 144.381 28.958 144.039 28.058C143.697 27.158 143.526 26.15 143.526 25.034ZM173.559 32H169.914V30.056H169.833C169.347 30.866 168.717 31.451 167.943 31.811C167.169 32.171 166.377 32.351 165.567 32.351C164.541 32.351 163.695 32.216 163.029 31.946C162.381 31.676 161.868 31.298 161.49 30.812C161.112 30.308 160.842 29.705 160.68 29.003C160.536 28.283 160.464 27.491 160.464 26.627V18.041H164.298V25.925C164.298 27.077 164.478 27.941 164.838 28.517C165.198 29.075 165.837 29.354 166.755 29.354C167.799 29.354 168.555 29.048 169.023 28.436C169.491 27.806 169.725 26.78 169.725 25.358V18.041H173.559V32ZM179.439 27.464C179.439 27.878 179.52 28.238 179.682 28.544C179.862 28.832 180.087 29.075 180.357 29.273C180.627 29.453 180.933 29.588 181.275 29.678C181.635 29.768 182.004 29.813 182.382 29.813C182.652 29.813 182.931 29.786 183.219 29.732C183.525 29.66 183.795 29.561 184.029 29.435C184.281 29.291 184.488 29.111 184.65 28.895C184.812 28.661 184.893 28.373 184.893 28.031C184.893 27.455 184.506 27.023 183.732 26.735C182.976 26.447 181.914 26.159 180.546 25.871C179.988 25.745 179.439 25.601 178.899 25.439C178.377 25.259 177.909 25.034 177.495 24.764C177.081 24.476 176.748 24.125 176.496 23.711C176.244 23.279 176.118 22.757 176.118 22.145C176.118 21.245 176.289 20.507 176.631 19.931C176.991 19.355 177.459 18.905 178.035 18.581C178.611 18.239 179.259 18.005 179.979 17.879C180.699 17.735 181.437 17.663 182.193 17.663C182.949 17.663 183.678 17.735 184.38 17.879C185.1 18.023 185.739 18.266 186.297 18.608C186.855 18.95 187.314 19.409 187.674 19.985C188.052 20.543 188.277 21.254 188.349 22.118H184.704C184.65 21.38 184.371 20.885 183.867 20.633C183.363 20.363 182.769 20.228 182.085 20.228C181.869 20.228 181.635 20.246 181.383 20.282C181.131 20.3 180.897 20.354 180.681 20.444C180.483 20.534 180.312 20.669 180.168 20.849C180.024 21.011 179.952 21.236 179.952 21.524C179.952 21.866 180.078 22.145 180.33 22.361C180.582 22.577 180.906 22.757 181.302 22.901C181.716 23.027 182.184 23.144 182.706 23.252C183.228 23.36 183.759 23.477 184.299 23.603C184.857 23.729 185.397 23.882 185.919 24.062C186.459 24.242 186.936 24.485 187.35 24.791C187.764 25.079 188.097 25.448 188.349 25.898C188.601 26.33 188.727 26.87 188.727 27.518C188.727 28.436 188.538 29.21 188.16 29.84C187.8 30.452 187.323 30.947 186.729 31.325C186.135 31.703 185.451 31.964 184.677 32.108C183.921 32.27 183.147 32.351 182.355 32.351C181.545 32.351 180.753 32.27 179.979 32.108C179.205 31.946 178.512 31.676 177.9 31.298C177.306 30.92 176.811 30.425 176.415 29.813C176.037 29.183 175.83 28.4 175.794 27.464H179.439ZM200.367 23.522C200.187 22.55 199.863 21.812 199.395 21.308C198.945 20.804 198.252 20.552 197.316 20.552C196.704 20.552 196.191 20.66 195.777 20.876C195.381 21.074 195.057 21.326 194.805 21.632C194.571 21.938 194.4 22.262 194.292 22.604C194.202 22.946 194.148 23.252 194.13 23.522H200.367ZM194.13 25.952C194.184 27.194 194.499 28.094 195.075 28.652C195.651 29.21 196.479 29.489 197.559 29.489C198.333 29.489 198.999 29.3 199.557 28.922C200.115 28.526 200.457 28.112 200.583 27.68H203.958C203.418 29.354 202.59 30.551 201.474 31.271C200.358 31.991 199.008 32.351 197.424 32.351C196.326 32.351 195.336 32.18 194.454 31.838C193.572 31.478 192.825 30.974 192.213 30.326C191.601 29.678 191.124 28.904 190.782 28.004C190.458 27.104 190.296 26.114 190.296 25.034C190.296 23.99 190.467 23.018 190.809 22.118C191.151 21.218 191.637 20.444 192.267 19.796C192.897 19.13 193.644 18.608 194.508 18.23C195.39 17.852 196.362 17.663 197.424 17.663C198.612 17.663 199.647 17.897 200.529 18.365C201.411 18.815 202.131 19.427 202.689 20.201C203.265 20.975 203.679 21.857 203.931 22.847C204.183 23.837 204.273 24.872 204.201 25.952H194.13ZM217.283 25.601C217.283 26.249 217.4 26.798 217.634 27.248C217.868 27.698 218.174 28.067 218.552 28.355C218.948 28.625 219.407 28.832 219.929 28.976C220.451 29.102 220.991 29.165 221.549 29.165C221.927 29.165 222.332 29.138 222.764 29.084C223.196 29.012 223.601 28.886 223.979 28.706C224.357 28.526 224.672 28.283 224.924 27.977C225.176 27.653 225.302 27.248 225.302 26.762C225.302 26.24 225.131 25.817 224.789 25.493C224.465 25.169 224.033 24.899 223.493 24.683C222.953 24.467 222.341 24.278 221.657 24.116C220.973 23.954 220.28 23.774 219.578 23.576C218.858 23.396 218.156 23.18 217.472 22.928C216.788 22.658 216.176 22.316 215.636 21.902C215.096 21.488 214.655 20.975 214.313 20.363C213.989 19.733 213.827 18.977 213.827 18.095C213.827 17.105 214.034 16.25 214.448 15.53C214.88 14.792 215.438 14.18 216.122 13.694C216.806 13.208 217.58 12.848 218.444 12.614C219.308 12.38 220.172 12.263 221.036 12.263C222.044 12.263 223.007 12.38 223.925 12.614C224.861 12.83 225.689 13.19 226.409 13.694C227.129 14.198 227.696 14.846 228.11 15.638C228.542 16.412 228.758 17.357 228.758 18.473H224.654C224.618 17.897 224.492 17.42 224.276 17.042C224.078 16.664 223.808 16.367 223.466 16.151C223.124 15.935 222.728 15.782 222.278 15.692C221.846 15.602 221.369 15.557 220.847 15.557C220.505 15.557 220.163 15.593 219.821 15.665C219.479 15.737 219.164 15.863 218.876 16.043C218.606 16.223 218.381 16.448 218.201 16.718C218.021 16.988 217.931 17.33 217.931 17.744C217.931 18.122 218.003 18.428 218.147 18.662C218.291 18.896 218.57 19.112 218.984 19.31C219.416 19.508 220.001 19.706 220.739 19.904C221.495 20.102 222.476 20.354 223.682 20.66C224.042 20.732 224.537 20.867 225.167 21.065C225.815 21.245 226.454 21.542 227.084 21.956C227.714 22.37 228.254 22.928 228.704 23.63C229.172 24.314 229.406 25.196 229.406 26.276C229.406 27.158 229.235 27.977 228.893 28.733C228.551 29.489 228.038 30.146 227.354 30.704C226.688 31.244 225.851 31.667 224.843 31.973C223.853 32.279 222.701 32.432 221.387 32.432C220.325 32.432 219.29 32.297 218.282 32.027C217.292 31.775 216.41 31.37 215.636 30.812C214.88 30.254 214.277 29.543 213.827 28.679C213.377 27.815 213.161 26.789 213.179 25.601H217.283ZM231.928 12.722H245.482V16.286H236.167V20.741H244.24V24.035H236.167V32H231.928V12.722Z" fill="black" style="fill:black;fill-opacity:1;"/>
</g>
<defs>
<clipPath id="clip0_88_32">
<rect width="255" height="51" fill="white" style="fill:white;fill-opacity:1;"/>
</clipPath>
</defs>
</svg>
