<svg width="250" height="54" viewBox="0 0 250 54" fill="none" xmlns="http://www.w3.org/2000/svg">
<g clip-path="url(#clip0_90_44)">
<path d="M49.129 17.286H43.351V13.722H59.146V17.286H53.368V33H49.129V17.286ZM67.354 24.522C67.174 23.55 66.85 22.812 66.382 22.308C65.932 21.804 65.239 21.552 64.303 21.552C63.691 21.552 63.178 21.66 62.764 21.876C62.368 22.074 62.044 22.326 61.792 22.632C61.558 22.938 61.387 23.262 61.279 23.604C61.189 23.946 61.135 24.252 61.117 24.522H67.354ZM61.117 26.952C61.171 28.194 61.486 29.094 62.062 29.652C62.638 30.21 63.466 30.489 64.546 30.489C65.32 30.489 65.986 30.3 66.544 29.922C67.102 29.526 67.444 29.112 67.57 28.68H70.945C70.405 30.354 69.577 31.551 68.461 32.271C67.345 32.991 65.995 33.351 64.411 33.351C63.313 33.351 62.323 33.18 61.441 32.838C60.559 32.478 59.812 31.974 59.2 31.326C58.588 30.678 58.111 29.904 57.769 29.004C57.445 28.104 57.283 27.114 57.283 26.034C57.283 24.99 57.454 24.018 57.796 23.118C58.138 22.218 58.624 21.444 59.254 20.796C59.884 20.13 60.631 19.608 61.495 19.23C62.377 18.852 63.349 18.663 64.411 18.663C65.599 18.663 66.634 18.897 67.516 19.365C68.398 19.815 69.118 20.427 69.676 21.201C70.252 21.975 70.666 22.857 70.918 23.847C71.17 24.837 71.26 25.872 71.188 26.952H61.117ZM73.5699 13.722H77.4039V33H73.5699V13.722ZM83.8248 26.034C83.8248 26.592 83.8788 27.141 83.9868 27.681C84.0948 28.203 84.2748 28.68 84.5268 29.112C84.7968 29.526 85.1478 29.859 85.5798 30.111C86.0118 30.363 86.5518 30.489 87.1998 30.489C87.8478 30.489 88.3878 30.363 88.8198 30.111C89.2698 29.859 89.6208 29.526 89.8728 29.112C90.1428 28.68 90.3318 28.203 90.4398 27.681C90.5478 27.141 90.6018 26.592 90.6018 26.034C90.6018 25.476 90.5478 24.927 90.4398 24.387C90.3318 23.847 90.1428 23.37 89.8728 22.956C89.6208 22.542 89.2698 22.209 88.8198 21.957C88.3878 21.687 87.8478 21.552 87.1998 21.552C86.5518 21.552 86.0118 21.687 85.5798 21.957C85.1478 22.209 84.7968 22.542 84.5268 22.956C84.2748 23.37 84.0948 23.847 83.9868 24.387C83.8788 24.927 83.8248 25.476 83.8248 26.034ZM79.9908 26.034C79.9908 24.918 80.1618 23.91 80.5038 23.01C80.8458 22.092 81.3318 21.318 81.9618 20.688C82.5918 20.04 83.3478 19.545 84.2298 19.203C85.1118 18.843 86.1018 18.663 87.1998 18.663C88.2978 18.663 89.2878 18.843 90.1698 19.203C91.0698 19.545 91.8348 20.04 92.4648 20.688C93.0948 21.318 93.5808 22.092 93.9228 23.01C94.2648 23.91 94.4358 24.918 94.4358 26.034C94.4358 27.15 94.2648 28.158 93.9228 29.058C93.5808 29.958 93.0948 30.732 92.4648 31.38C91.8348 32.01 91.0698 32.496 90.1698 32.838C89.2878 33.18 88.2978 33.351 87.1998 33.351C86.1018 33.351 85.1118 33.18 84.2298 32.838C83.3478 32.496 82.5918 32.01 81.9618 31.38C81.3318 30.732 80.8458 29.958 80.5038 29.058C80.1618 28.158 79.9908 27.15 79.9908 26.034ZM99.8987 28.464C99.8987 28.878 99.9797 29.238 100.142 29.544C100.322 29.832 100.547 30.075 100.817 30.273C101.087 30.453 101.393 30.588 101.735 30.678C102.095 30.768 102.464 30.813 102.842 30.813C103.112 30.813 103.391 30.786 103.679 30.732C103.985 30.66 104.255 30.561 104.489 30.435C104.741 30.291 104.948 30.111 105.11 29.895C105.272 29.661 105.353 29.373 105.353 29.031C105.353 28.455 104.966 28.023 104.192 27.735C103.436 27.447 102.374 27.159 101.006 26.871C100.448 26.745 99.8987 26.601 99.3587 26.439C98.8367 26.259 98.3687 26.034 97.9547 25.764C97.5407 25.476 97.2077 25.125 96.9557 24.711C96.7037 24.279 96.5777 23.757 96.5777 23.145C96.5777 22.245 96.7487 21.507 97.0907 20.931C97.4507 20.355 97.9187 19.905 98.4947 19.581C99.0707 19.239 99.7187 19.005 100.439 18.879C101.159 18.735 101.897 18.663 102.653 18.663C103.409 18.663 104.138 18.735 104.84 18.879C105.56 19.023 106.199 19.266 106.757 19.608C107.315 19.95 107.774 20.409 108.134 20.985C108.512 21.543 108.737 22.254 108.809 23.118H105.164C105.11 22.38 104.831 21.885 104.327 21.633C103.823 21.363 103.229 21.228 102.545 21.228C102.329 21.228 102.095 21.246 101.843 21.282C101.591 21.3 101.357 21.354 101.141 21.444C100.943 21.534 100.772 21.669 100.628 21.849C100.484 22.011 100.412 22.236 100.412 22.524C100.412 22.866 100.538 23.145 100.79 23.361C101.042 23.577 101.366 23.757 101.762 23.901C102.176 24.027 102.644 24.144 103.166 24.252C103.688 24.36 104.219 24.477 104.759 24.603C105.317 24.729 105.857 24.882 106.379 25.062C106.919 25.242 107.396 25.485 107.81 25.791C108.224 26.079 108.557 26.448 108.809 26.898C109.061 27.33 109.187 27.87 109.187 28.518C109.187 29.436 108.998 30.21 108.62 30.84C108.26 31.452 107.783 31.947 107.189 32.325C106.595 32.703 105.911 32.964 105.137 33.108C104.381 33.27 103.607 33.351 102.815 33.351C102.005 33.351 101.213 33.27 100.439 33.108C99.6647 32.946 98.9717 32.676 98.3597 32.298C97.7657 31.92 97.2707 31.425 96.8747 30.813C96.4967 30.183 96.2897 29.4 96.2537 28.464H99.8987ZM119.35 13.722H123.589V21.12H131.392V13.722H135.631V33H131.392V24.684H123.589V33H119.35V13.722ZM142.36 26.034C142.36 26.592 142.414 27.141 142.522 27.681C142.63 28.203 142.81 28.68 143.062 29.112C143.332 29.526 143.683 29.859 144.115 30.111C144.547 30.363 145.087 30.489 145.735 30.489C146.383 30.489 146.923 30.363 147.355 30.111C147.805 29.859 148.156 29.526 148.408 29.112C148.678 28.68 148.867 28.203 148.975 27.681C149.083 27.141 149.137 26.592 149.137 26.034C149.137 25.476 149.083 24.927 148.975 24.387C148.867 23.847 148.678 23.37 148.408 22.956C148.156 22.542 147.805 22.209 147.355 21.957C146.923 21.687 146.383 21.552 145.735 21.552C145.087 21.552 144.547 21.687 144.115 21.957C143.683 22.209 143.332 22.542 143.062 22.956C142.81 23.37 142.63 23.847 142.522 24.387C142.414 24.927 142.36 25.476 142.36 26.034ZM138.526 26.034C138.526 24.918 138.697 23.91 139.039 23.01C139.381 22.092 139.867 21.318 140.497 20.688C141.127 20.04 141.883 19.545 142.765 19.203C143.647 18.843 144.637 18.663 145.735 18.663C146.833 18.663 147.823 18.843 148.705 19.203C149.605 19.545 150.37 20.04 151 20.688C151.63 21.318 152.116 22.092 152.458 23.01C152.8 23.91 152.971 24.918 152.971 26.034C152.971 27.15 152.8 28.158 152.458 29.058C152.116 29.958 151.63 30.732 151 31.38C150.37 32.01 149.605 32.496 148.705 32.838C147.823 33.18 146.833 33.351 145.735 33.351C144.637 33.351 143.647 33.18 142.765 32.838C141.883 32.496 141.127 32.01 140.497 31.38C139.867 30.732 139.381 29.958 139.039 29.058C138.697 28.158 138.526 27.15 138.526 26.034ZM168.559 33H164.914V31.056H164.833C164.347 31.866 163.717 32.451 162.943 32.811C162.169 33.171 161.377 33.351 160.567 33.351C159.541 33.351 158.695 33.216 158.029 32.946C157.381 32.676 156.868 32.298 156.49 31.812C156.112 31.308 155.842 30.705 155.68 30.003C155.536 29.283 155.464 28.491 155.464 27.627V19.041H159.298V26.925C159.298 28.077 159.478 28.941 159.838 29.517C160.198 30.075 160.837 30.354 161.755 30.354C162.799 30.354 163.555 30.048 164.023 29.436C164.491 28.806 164.725 27.78 164.725 26.358V19.041H168.559V33ZM174.439 28.464C174.439 28.878 174.52 29.238 174.682 29.544C174.862 29.832 175.087 30.075 175.357 30.273C175.627 30.453 175.933 30.588 176.275 30.678C176.635 30.768 177.004 30.813 177.382 30.813C177.652 30.813 177.931 30.786 178.219 30.732C178.525 30.66 178.795 30.561 179.029 30.435C179.281 30.291 179.488 30.111 179.65 29.895C179.812 29.661 179.893 29.373 179.893 29.031C179.893 28.455 179.506 28.023 178.732 27.735C177.976 27.447 176.914 27.159 175.546 26.871C174.988 26.745 174.439 26.601 173.899 26.439C173.377 26.259 172.909 26.034 172.495 25.764C172.081 25.476 171.748 25.125 171.496 24.711C171.244 24.279 171.118 23.757 171.118 23.145C171.118 22.245 171.289 21.507 171.631 20.931C171.991 20.355 172.459 19.905 173.035 19.581C173.611 19.239 174.259 19.005 174.979 18.879C175.699 18.735 176.437 18.663 177.193 18.663C177.949 18.663 178.678 18.735 179.38 18.879C180.1 19.023 180.739 19.266 181.297 19.608C181.855 19.95 182.314 20.409 182.674 20.985C183.052 21.543 183.277 22.254 183.349 23.118H179.704C179.65 22.38 179.371 21.885 178.867 21.633C178.363 21.363 177.769 21.228 177.085 21.228C176.869 21.228 176.635 21.246 176.383 21.282C176.131 21.3 175.897 21.354 175.681 21.444C175.483 21.534 175.312 21.669 175.168 21.849C175.024 22.011 174.952 22.236 174.952 22.524C174.952 22.866 175.078 23.145 175.33 23.361C175.582 23.577 175.906 23.757 176.302 23.901C176.716 24.027 177.184 24.144 177.706 24.252C178.228 24.36 178.759 24.477 179.299 24.603C179.857 24.729 180.397 24.882 180.919 25.062C181.459 25.242 181.936 25.485 182.35 25.791C182.764 26.079 183.097 26.448 183.349 26.898C183.601 27.33 183.727 27.87 183.727 28.518C183.727 29.436 183.538 30.21 183.16 30.84C182.8 31.452 182.323 31.947 181.729 32.325C181.135 32.703 180.451 32.964 179.677 33.108C178.921 33.27 178.147 33.351 177.355 33.351C176.545 33.351 175.753 33.27 174.979 33.108C174.205 32.946 173.512 32.676 172.9 32.298C172.306 31.92 171.811 31.425 171.415 30.813C171.037 30.183 170.83 29.4 170.794 28.464H174.439ZM195.367 24.522C195.187 23.55 194.863 22.812 194.395 22.308C193.945 21.804 193.252 21.552 192.316 21.552C191.704 21.552 191.191 21.66 190.777 21.876C190.381 22.074 190.057 22.326 189.805 22.632C189.571 22.938 189.4 23.262 189.292 23.604C189.202 23.946 189.148 24.252 189.13 24.522H195.367ZM189.13 26.952C189.184 28.194 189.499 29.094 190.075 29.652C190.651 30.21 191.479 30.489 192.559 30.489C193.333 30.489 193.999 30.3 194.557 29.922C195.115 29.526 195.457 29.112 195.583 28.68H198.958C198.418 30.354 197.59 31.551 196.474 32.271C195.358 32.991 194.008 33.351 192.424 33.351C191.326 33.351 190.336 33.18 189.454 32.838C188.572 32.478 187.825 31.974 187.213 31.326C186.601 30.678 186.124 29.904 185.782 29.004C185.458 28.104 185.296 27.114 185.296 26.034C185.296 24.99 185.467 24.018 185.809 23.118C186.151 22.218 186.637 21.444 187.267 20.796C187.897 20.13 188.644 19.608 189.508 19.23C190.39 18.852 191.362 18.663 192.424 18.663C193.612 18.663 194.647 18.897 195.529 19.365C196.411 19.815 197.131 20.427 197.689 21.201C198.265 21.975 198.679 22.857 198.931 23.847C199.183 24.837 199.273 25.872 199.201 26.952H189.13ZM212.283 26.601C212.283 27.249 212.4 27.798 212.634 28.248C212.868 28.698 213.174 29.067 213.552 29.355C213.948 29.625 214.407 29.832 214.929 29.976C215.451 30.102 215.991 30.165 216.549 30.165C216.927 30.165 217.332 30.138 217.764 30.084C218.196 30.012 218.601 29.886 218.979 29.706C219.357 29.526 219.672 29.283 219.924 28.977C220.176 28.653 220.302 28.248 220.302 27.762C220.302 27.24 220.131 26.817 219.789 26.493C219.465 26.169 219.033 25.899 218.493 25.683C217.953 25.467 217.341 25.278 216.657 25.116C215.973 24.954 215.28 24.774 214.578 24.576C213.858 24.396 213.156 24.18 212.472 23.928C211.788 23.658 211.176 23.316 210.636 22.902C210.096 22.488 209.655 21.975 209.313 21.363C208.989 20.733 208.827 19.977 208.827 19.095C208.827 18.105 209.034 17.25 209.448 16.53C209.88 15.792 210.438 15.18 211.122 14.694C211.806 14.208 212.58 13.848 213.444 13.614C214.308 13.38 215.172 13.263 216.036 13.263C217.044 13.263 218.007 13.38 218.925 13.614C219.861 13.83 220.689 14.19 221.409 14.694C222.129 15.198 222.696 15.846 223.11 16.638C223.542 17.412 223.758 18.357 223.758 19.473H219.654C219.618 18.897 219.492 18.42 219.276 18.042C219.078 17.664 218.808 17.367 218.466 17.151C218.124 16.935 217.728 16.782 217.278 16.692C216.846 16.602 216.369 16.557 215.847 16.557C215.505 16.557 215.163 16.593 214.821 16.665C214.479 16.737 214.164 16.863 213.876 17.043C213.606 17.223 213.381 17.448 213.201 17.718C213.021 17.988 212.931 18.33 212.931 18.744C212.931 19.122 213.003 19.428 213.147 19.662C213.291 19.896 213.57 20.112 213.984 20.31C214.416 20.508 215.001 20.706 215.739 20.904C216.495 21.102 217.476 21.354 218.682 21.66C219.042 21.732 219.537 21.867 220.167 22.065C220.815 22.245 221.454 22.542 222.084 22.956C222.714 23.37 223.254 23.928 223.704 24.63C224.172 25.314 224.406 26.196 224.406 27.276C224.406 28.158 224.235 28.977 223.893 29.733C223.551 30.489 223.038 31.146 222.354 31.704C221.688 32.244 220.851 32.667 219.843 32.973C218.853 33.279 217.701 33.432 216.387 33.432C215.325 33.432 214.29 33.297 213.282 33.027C212.292 32.775 211.41 32.37 210.636 31.812C209.88 31.254 209.277 30.543 208.827 29.679C208.377 28.815 208.161 27.789 208.179 26.601H212.283ZM226.928 13.722H240.482V17.286H231.167V21.741H239.24V25.035H231.167V33H226.928V13.722Z" fill="white"/>
<path d="M17.9803 10.4157C17.4091 10.9117 16.3591 11.823 15.6464 12.4485C14.9337 13.0686 14.0523 13.8397 13.6933 14.1524C13.3287 14.4706 12.5943 15.1122 12.0557 15.5813C11.0329 16.4764 8.94921 18.2882 7.67615 19.4044C7.26812 19.7603 6.37589 20.5367 5.70128 21.1299L4.46631 22.2083V23.5456C4.46631 24.3382 4.48807 24.8774 4.51527 24.8666C4.5588 24.8559 8.26916 21.9872 10.293 20.4019C11.0438 19.8142 11.6966 19.3073 15.4233 16.4225C16.4026 15.6622 17.2404 15.0367 17.273 15.0421C17.3111 15.0475 18.0347 15.4735 18.8888 15.9911C19.7376 16.5088 20.608 17.0372 20.8148 17.1612C21.0269 17.2907 21.3914 17.5117 21.6308 17.6573C21.8702 17.8029 22.251 18.0348 22.4741 18.1696C22.9202 18.4392 23.8723 19.0161 25.2215 19.8358C25.7002 20.1269 26.4347 20.5691 26.8536 20.8279C27.2725 21.0813 27.8873 21.4534 28.2137 21.6529C28.5456 21.8524 28.9101 22.0735 29.0298 22.1436C29.2365 22.2622 30.0254 22.7421 31.6684 23.7451C32.071 23.9931 32.6585 24.349 32.9741 24.5377L33.5453 24.8828L33.5616 23.5725C33.578 22.2676 33.5725 22.2622 33.4528 22.1598C33.3821 22.1059 32.6205 21.4372 31.7554 20.6769C30.885 19.9166 29.7098 18.8867 29.144 18.3907C27.4684 16.924 27.0331 16.5411 25.6567 15.3333C24.9386 14.7024 24.0844 13.9529 23.7526 13.6617C22.3762 12.4593 21.0324 11.2784 20.1891 10.5451C19.694 10.1137 19.2316 9.70389 19.1554 9.63379L19.014 9.50977L17.9803 10.4157Z" fill="#154183"/>
<path d="M15.2873 18.4176C14.7378 18.8328 13.7259 19.5931 13.035 20.1108C11.8598 20.9951 11.3539 21.3725 8.51942 23.5024C7.89377 23.9716 6.77848 24.8074 6.04403 25.352C5.30957 25.902 4.65672 26.398 4.59144 26.4574C4.46631 26.5652 4.46631 26.5868 4.46631 27.9078C4.46631 28.7544 4.48807 29.2451 4.52071 29.2451C4.54791 29.2451 4.74921 29.1319 4.96683 28.9917C5.18444 28.8569 6.02771 28.3338 6.83289 27.827C7.64351 27.3255 8.38885 26.8618 8.49222 26.7917C8.59558 26.727 9.0145 26.4681 9.41709 26.2147C9.81968 25.9667 11.1145 25.1578 12.2896 24.4245L14.4277 23.0873L23.9593 26.2471C29.2039 27.9833 33.5072 29.4069 33.5344 29.4069C33.5562 29.4069 33.5725 28.7652 33.5725 27.9833V26.5652L33.1808 26.3657C32.9632 26.2632 32.479 26.0152 32.1036 25.8211C31.4834 25.4975 30.6728 25.077 29.0298 24.2304C28.7034 24.0578 27.871 23.6319 27.18 23.276C26.4945 22.9201 25.5642 22.4402 25.1127 22.2083C24.6666 21.9765 24.03 21.6475 23.6982 21.4804C23.3717 21.3078 22.4251 20.8225 21.6036 20.402C20.7821 19.9814 19.5798 19.3613 18.9378 19.027C18.2958 18.6926 17.4363 18.2505 17.0282 18.0402L16.2883 17.6627L15.2873 18.4176Z" fill="#154183"/>
<path d="M12.3821 26.5167C11.245 27.1907 8.5629 28.7921 5.77196 30.4637L4.49346 31.2294L4.47714 32.5828C4.4717 33.4564 4.48258 33.9363 4.52067 33.9363C4.54787 33.9363 5.55979 33.5588 6.76212 33.0951C7.96989 32.6314 9.07973 32.2108 9.22663 32.1568C9.37896 32.1029 9.75435 31.9573 10.0699 31.8333C10.3854 31.7147 10.8751 31.526 11.158 31.4181L11.6748 31.224L12.5181 31.3426C13.3124 31.4505 14.4875 31.5961 16.4352 31.8333C17.8388 32.0059 19.4655 32.2054 20.3251 32.3186C20.7766 32.3779 21.4458 32.4588 21.8212 32.5019C22.1966 32.5505 23.2847 32.6799 24.2422 32.8039C25.1997 32.9225 26.4619 33.0789 27.044 33.1544C28.1049 33.2838 29.0025 33.397 30.9339 33.6397C31.5051 33.7098 32.2994 33.8069 32.702 33.8554C33.1046 33.9039 33.4691 33.9524 33.5072 33.9632C33.5616 33.9848 33.5725 33.7044 33.5616 32.6044L33.5453 31.224L31.7771 30.7441C30.8033 30.4853 29.7043 30.1833 29.329 30.0809C28.2409 29.7843 24.4598 28.7598 23.8341 28.598C23.5186 28.5118 23.029 28.3823 22.7461 28.3015C21.5437 27.9779 20.7875 27.7676 20.3523 27.6544C20.0966 27.5843 19.558 27.4387 19.1554 27.3309C18.7528 27.223 18.2142 27.0774 17.9585 27.0073C17.7028 26.9372 17.1642 26.7917 16.7616 26.6838C16.359 26.576 15.8204 26.4304 15.5647 26.3603C14.1828 25.9936 13.6442 25.8426 13.6116 25.8265C13.5898 25.8103 13.0349 26.123 12.3821 26.5167Z" fill="#154183"/>
<path d="M7.70336 34.8475L4.49351 35.8613L4.47719 37.2417L4.46631 38.6274H19.0194H33.5725L33.5616 37.2363L33.5453 35.8505L32.4572 35.7588C31.8588 35.7103 30.8306 35.6186 30.1723 35.5593C29.0135 35.4461 28.2572 35.3814 24.9767 35.0956C24.1225 35.0201 23.1922 34.9392 22.9093 34.9069C22.6264 34.8799 21.794 34.8044 21.0596 34.7451C20.3251 34.6858 19.5091 34.6103 19.237 34.5833C18.9705 34.551 18.0619 34.4701 17.2241 34.3946C13.2526 34.0495 12.4909 33.9848 11.7619 33.9093C11.3321 33.8662 10.9676 33.8284 10.9458 33.8338C10.9295 33.8392 9.47149 34.2921 7.70336 34.8475Z" fill="#154183"/>
</g>
<defs>
<clipPath id="clip0_90_44">
<rect width="250" height="54" fill="white"/>
</clipPath>
</defs>
</svg>
